<svg width="328" height="13" viewBox="0 0 328 13" fill="none" xmlns="http://www.w3.org/2000/svg">
<path d="M5.094 0.407999H7.758L12.168 12H9.648L8.55 9.21H4.284L3.204 12H0.666L5.094 0.407999ZM8.19 7.338L6.408 2.676L4.644 7.338H8.19ZM14.452 2.28H10.888V0.407999H20.428V2.28H16.882V12H14.452V2.28ZM27.8945 0.407999H30.4325L33.6365 9.282L36.8585 0.407999H39.3965L34.9865 12H32.3225L27.8945 0.407999ZM41.0865 0.407999H49.4025V2.298H43.5165V5.268H48.7365V7.14H43.5165V10.128H49.4025V12H41.0865V0.407999ZM51.0885 0.407999H56.6505C57.9465 0.407999 58.9125 0.749999 59.5485 1.434C60.1965 2.118 60.5205 3.072 60.5205 4.296C60.5205 5.076 60.3165 5.748 59.9085 6.312C59.5125 6.876 58.9485 7.284 58.2165 7.536C58.3965 7.692 58.5405 7.86 58.6485 8.04C58.7685 8.208 58.8945 8.448 59.0265 8.76L60.4305 12H57.9105L56.5425 8.886C56.4225 8.61 56.2845 8.424 56.1285 8.328C55.9845 8.22 55.7505 8.166 55.4265 8.166H53.5185V12H51.0885V0.407999ZM56.0205 6.15C56.6805 6.15 57.1845 6.006 57.5325 5.718C57.8805 5.418 58.0545 4.944 58.0545 4.296C58.0545 3.648 57.8985 3.174 57.5865 2.874C57.2745 2.574 56.8005 2.424 56.1645 2.424H53.5185V6.15H56.0205ZM67.2258 12.18C63.4698 12.18 61.5918 10.206 61.5918 6.258C61.5918 4.17 62.0538 2.646 62.9778 1.686C63.9138 0.713999 65.3298 0.227999 67.2258 0.227999C69.1218 0.227999 70.5318 0.713999 71.4558 1.686C72.3918 2.646 72.8598 4.17 72.8598 6.258C72.8598 10.206 70.9818 12.18 67.2258 12.18ZM67.2258 10.11C68.3058 10.11 69.1038 9.798 69.6198 9.174C70.1358 8.538 70.3938 7.566 70.3938 6.258C70.3938 4.83 70.1418 3.816 69.6378 3.216C69.1338 2.604 68.3298 2.298 67.2258 2.298C66.1218 2.298 65.3178 2.604 64.8138 3.216C64.3098 3.816 64.0578 4.83 64.0578 6.258C64.0578 7.566 64.3158 8.538 64.8318 9.174C65.3478 9.798 66.1458 10.11 67.2258 10.11ZM81.0416 0.407999H89.3576V2.298H83.4716V5.268H88.6916V7.14H83.4716V10.128H89.3576V12H81.0416V0.407999ZM95.3332 12.18C91.5772 12.18 89.6992 10.206 89.6992 6.258C89.6992 4.17 90.1612 2.646 91.0852 1.686C92.0212 0.713999 93.4372 0.227999 95.3332 0.227999C97.2292 0.227999 98.6392 0.713999 99.5632 1.686C100.499 2.646 100.967 4.17 100.967 6.258C100.967 10.206 99.0892 12.18 95.3332 12.18ZM95.3332 10.11C96.4132 10.11 97.2112 9.798 97.7272 9.174C98.2432 8.538 98.5012 7.566 98.5012 6.258C98.5012 4.83 98.2492 3.816 97.7452 3.216C97.2412 2.604 96.4372 2.298 95.3332 2.298C94.2292 2.298 93.4252 2.604 92.9212 3.216C92.4172 3.816 92.1652 4.83 92.1652 6.258C92.1652 7.566 92.4232 8.538 92.9392 9.174C93.4552 9.798 94.2532 10.11 95.3332 10.11ZM105.454 12.18C103.906 12.18 102.658 11.97 101.71 11.55V9.408C102.25 9.624 102.826 9.798 103.438 9.93C104.05 10.062 104.644 10.128 105.22 10.128C106.12 10.128 106.75 10.044 107.11 9.876C107.482 9.708 107.668 9.36 107.668 8.832C107.668 8.484 107.584 8.208 107.416 8.004C107.248 7.8 106.972 7.626 106.588 7.482C106.204 7.326 105.604 7.134 104.788 6.906C103.576 6.57 102.724 6.15 102.232 5.646C101.74 5.142 101.494 4.446 101.494 3.558C101.494 2.49 101.884 1.668 102.664 1.092C103.444 0.515999 104.578 0.227999 106.066 0.227999C106.738 0.227999 107.374 0.275999 107.974 0.372C108.586 0.455999 109.084 0.569999 109.468 0.713999V2.856C108.484 2.484 107.458 2.298 106.39 2.298C105.574 2.298 104.962 2.388 104.554 2.568C104.158 2.748 103.96 3.078 103.96 3.558C103.96 3.858 104.032 4.098 104.176 4.278C104.332 4.458 104.584 4.62 104.932 4.764C105.292 4.896 105.844 5.058 106.588 5.25C107.932 5.61 108.862 6.078 109.378 6.654C109.894 7.218 110.152 7.944 110.152 8.832C110.152 9.876 109.756 10.698 108.964 11.298C108.172 11.886 107.002 12.18 105.454 12.18ZM118.325 0.407999H126.641V2.298H120.755V5.268H125.975V7.14H120.755V10.128H126.641V12H118.325V0.407999ZM131.171 2.28H127.607V0.407999H137.147V2.28H133.601V12H131.171V2.28ZM149.041 0.407999H151.705L156.115 12H153.595L152.497 9.21H148.231L147.151 12H144.613L149.041 0.407999ZM152.137 7.338L150.355 2.676L148.591 7.338H152.137ZM162.473 12.18C160.553 12.18 159.071 11.664 158.027 10.632C156.983 9.588 156.461 8.148 156.461 6.312C156.461 4.368 156.965 2.868 157.973 1.812C158.993 0.755999 160.487 0.227999 162.455 0.227999C163.703 0.227999 164.855 0.419999 165.911 0.803999V2.928C164.891 2.508 163.799 2.298 162.635 2.298C161.327 2.298 160.379 2.628 159.791 3.288C159.215 3.936 158.927 4.944 158.927 6.312C158.927 7.596 159.233 8.556 159.845 9.192C160.469 9.816 161.411 10.128 162.671 10.128C163.847 10.128 164.933 9.924 165.929 9.516V11.658C164.861 12.006 163.709 12.18 162.473 12.18ZM172.809 12.18C170.889 12.18 169.407 11.664 168.363 10.632C167.319 9.588 166.797 8.148 166.797 6.312C166.797 4.368 167.301 2.868 168.309 1.812C169.329 0.755999 170.823 0.227999 172.791 0.227999C174.039 0.227999 175.191 0.419999 176.247 0.803999V2.928C175.227 2.508 174.135 2.298 172.971 2.298C171.663 2.298 170.715 2.628 170.127 3.288C169.551 3.936 169.263 4.944 169.263 6.312C169.263 7.596 169.569 8.556 170.181 9.192C170.805 9.816 171.747 10.128 173.007 10.128C174.183 10.128 175.269 9.924 176.265 9.516V11.658C175.197 12.006 174.045 12.18 172.809 12.18ZM183.044 12.18C181.424 12.18 180.152 11.79 179.228 11.01C178.316 10.23 177.86 9.108 177.86 7.644V0.407999H180.29V7.464C180.29 8.34 180.524 9 180.992 9.444C181.472 9.888 182.156 10.11 183.044 10.11C183.932 10.11 184.61 9.888 185.078 9.444C185.546 9 185.78 8.34 185.78 7.464V0.407999H188.21V7.644C188.21 9.096 187.754 10.218 186.842 11.01C185.93 11.79 184.664 12.18 183.044 12.18ZM193.767 12.18C192.219 12.18 190.971 11.97 190.023 11.55V9.408C190.563 9.624 191.139 9.798 191.751 9.93C192.363 10.062 192.957 10.128 193.533 10.128C194.433 10.128 195.063 10.044 195.423 9.876C195.795 9.708 195.981 9.36 195.981 8.832C195.981 8.484 195.897 8.208 195.729 8.004C195.561 7.8 195.285 7.626 194.901 7.482C194.517 7.326 193.917 7.134 193.101 6.906C191.889 6.57 191.037 6.15 190.545 5.646C190.053 5.142 189.807 4.446 189.807 3.558C189.807 2.49 190.197 1.668 190.977 1.092C191.757 0.515999 192.891 0.227999 194.379 0.227999C195.051 0.227999 195.687 0.275999 196.287 0.372C196.899 0.455999 197.397 0.569999 197.781 0.713999V2.856C196.797 2.484 195.771 2.298 194.703 2.298C193.887 2.298 193.275 2.388 192.867 2.568C192.471 2.748 192.273 3.078 192.273 3.558C192.273 3.858 192.345 4.098 192.489 4.278C192.645 4.458 192.897 4.62 193.245 4.764C193.605 4.896 194.157 5.058 194.901 5.25C196.245 5.61 197.175 6.078 197.691 6.654C198.207 7.218 198.465 7.944 198.465 8.832C198.465 9.876 198.069 10.698 197.277 11.298C196.485 11.886 195.315 12.18 193.767 12.18ZM203.41 0.407999H206.074L210.484 12H207.964L206.866 9.21H202.6L201.52 12H198.982L203.41 0.407999ZM206.506 7.338L204.724 2.676L202.96 7.338H206.506ZM211.717 0.407999H214.165L217.567 7.374L220.969 0.407999H223.399V12H220.969V4.458L218.269 10.002H216.865L214.147 4.458V12H211.717V0.407999ZM230.54 12.18C228.92 12.18 227.648 11.79 226.724 11.01C225.812 10.23 225.356 9.108 225.356 7.644V0.407999H227.786V7.464C227.786 8.34 228.02 9 228.488 9.444C228.968 9.888 229.652 10.11 230.54 10.11C231.428 10.11 232.106 9.888 232.574 9.444C233.042 9 233.276 8.34 233.276 7.464V0.407999H235.706V7.644C235.706 9.096 235.25 10.218 234.338 11.01C233.426 11.79 232.16 12.18 230.54 12.18ZM241.263 12.18C239.715 12.18 238.467 11.97 237.519 11.55V9.408C238.059 9.624 238.635 9.798 239.247 9.93C239.859 10.062 240.453 10.128 241.029 10.128C241.929 10.128 242.559 10.044 242.919 9.876C243.291 9.708 243.477 9.36 243.477 8.832C243.477 8.484 243.393 8.208 243.225 8.004C243.057 7.8 242.781 7.626 242.397 7.482C242.013 7.326 241.413 7.134 240.597 6.906C239.385 6.57 238.533 6.15 238.041 5.646C237.549 5.142 237.303 4.446 237.303 3.558C237.303 2.49 237.693 1.668 238.473 1.092C239.253 0.515999 240.387 0.227999 241.875 0.227999C242.547 0.227999 243.183 0.275999 243.783 0.372C244.395 0.455999 244.893 0.569999 245.277 0.713999V2.856C244.293 2.484 243.267 2.298 242.199 2.298C241.383 2.298 240.771 2.388 240.363 2.568C239.967 2.748 239.769 3.078 239.769 3.558C239.769 3.858 239.841 4.098 239.985 4.278C240.141 4.458 240.393 4.62 240.741 4.764C241.101 4.896 241.653 5.058 242.397 5.25C243.741 5.61 244.671 6.078 245.187 6.654C245.703 7.218 245.961 7.944 245.961 8.832C245.961 9.876 245.565 10.698 244.773 11.298C243.981 11.886 242.811 12.18 241.263 12.18ZM254.133 0.407999H262.449V2.298H256.563V5.268H261.783V7.14H256.563V10.128H262.449V12H254.133V0.407999ZM266.979 2.28H263.415V0.407999H272.955V2.28H269.409V12H266.979V2.28ZM280.782 0.407999H283.212V12H280.782V0.407999ZM290.358 12.18C288.738 12.18 287.466 11.79 286.542 11.01C285.63 10.23 285.174 9.108 285.174 7.644V0.407999H287.604V7.464C287.604 8.34 287.838 9 288.306 9.444C288.786 9.888 289.47 10.11 290.358 10.11C291.246 10.11 291.924 9.888 292.392 9.444C292.86 9 293.094 8.34 293.094 7.464V0.407999H295.524V7.644C295.524 9.096 295.068 10.218 294.156 11.01C293.244 11.79 291.978 12.18 290.358 12.18ZM301.081 12.18C299.533 12.18 298.285 11.97 297.337 11.55V9.408C297.877 9.624 298.453 9.798 299.065 9.93C299.677 10.062 300.271 10.128 300.847 10.128C301.747 10.128 302.377 10.044 302.737 9.876C303.109 9.708 303.295 9.36 303.295 8.832C303.295 8.484 303.211 8.208 303.043 8.004C302.875 7.8 302.599 7.626 302.215 7.482C301.831 7.326 301.231 7.134 300.415 6.906C299.203 6.57 298.351 6.15 297.859 5.646C297.367 5.142 297.121 4.446 297.121 3.558C297.121 2.49 297.511 1.668 298.291 1.092C299.071 0.515999 300.205 0.227999 301.693 0.227999C302.365 0.227999 303.001 0.275999 303.601 0.372C304.213 0.455999 304.711 0.569999 305.095 0.713999V2.856C304.111 2.484 303.085 2.298 302.017 2.298C301.201 2.298 300.589 2.388 300.181 2.568C299.785 2.748 299.587 3.078 299.587 3.558C299.587 3.858 299.659 4.098 299.803 4.278C299.959 4.458 300.211 4.62 300.559 4.764C300.919 4.896 301.471 5.058 302.215 5.25C303.559 5.61 304.489 6.078 305.005 6.654C305.521 7.218 305.779 7.944 305.779 8.832C305.779 9.876 305.383 10.698 304.591 11.298C303.799 11.886 302.629 12.18 301.081 12.18ZM309.852 2.28H306.288V0.407999H315.828V2.28H312.282V12H309.852V2.28ZM321.458 12.18C317.702 12.18 315.824 10.206 315.824 6.258C315.824 4.17 316.286 2.646 317.21 1.686C318.146 0.713999 319.562 0.227999 321.458 0.227999C323.354 0.227999 324.764 0.713999 325.688 1.686C326.624 2.646 327.092 4.17 327.092 6.258C327.092 10.206 325.214 12.18 321.458 12.18ZM321.458 10.11C322.538 10.11 323.336 9.798 323.852 9.174C324.368 8.538 324.626 7.566 324.626 6.258C324.626 4.83 324.374 3.816 323.87 3.216C323.366 2.604 322.562 2.298 321.458 2.298C320.354 2.298 319.55 2.604 319.046 3.216C318.542 3.816 318.29 4.83 318.29 6.258C318.29 7.566 318.548 8.538 319.064 9.174C319.58 9.798 320.378 10.11 321.458 10.11Z" fill="#1F1F1D"/>
</svg>
