<svg width="117" height="9" viewBox="0 0 117 9" fill="none" xmlns="http://www.w3.org/2000/svg">
<path d="M1.704 1.736L0.444 1.94V0.584L3.324 0.151999V8H1.704V1.736ZM13.9438 8.312C12.7118 8.312 11.8198 7.968 11.2678 7.28C10.7238 6.592 10.4518 5.576 10.4518 4.232C10.4518 2.888 10.7238 1.872 11.2678 1.184C11.8198 0.496 12.7118 0.151999 13.9438 0.151999C15.1758 0.151999 16.0638 0.496 16.6078 1.184C17.1598 1.872 17.4358 2.888 17.4358 4.232C17.4358 5.576 17.1598 6.592 16.6078 7.28C16.0638 7.968 15.1758 8.312 13.9438 8.312ZM13.9438 6.92C14.6158 6.92 15.0918 6.7 15.3718 6.26C15.6518 5.812 15.7918 5.136 15.7918 4.232C15.7918 3.328 15.6518 2.656 15.3718 2.216C15.0918 1.768 14.6158 1.544 13.9438 1.544C13.2718 1.544 12.7958 1.768 12.5158 2.216C12.2358 2.656 12.0958 3.328 12.0958 4.232C12.0958 5.136 12.2358 5.812 12.5158 6.26C12.7958 6.7 13.2718 6.92 13.9438 6.92ZM27.1348 0.0559993H28.7908L25.9828 8H24.3268L27.1348 0.0559993ZM36.9423 1.736L35.6823 1.94V0.584L38.5623 0.151999V8H36.9423V1.736ZM49.1821 8.312C47.9501 8.312 47.0581 7.968 46.5061 7.28C45.9621 6.592 45.6901 5.576 45.6901 4.232C45.6901 2.888 45.9621 1.872 46.5061 1.184C47.0581 0.496 47.9501 0.151999 49.1821 0.151999C50.4141 0.151999 51.3021 0.496 51.8461 1.184C52.3981 1.872 52.6741 2.888 52.6741 4.232C52.6741 5.576 52.3981 6.592 51.8461 7.28C51.3021 7.968 50.4141 8.312 49.1821 8.312ZM49.1821 6.92C49.8541 6.92 50.3301 6.7 50.6101 6.26C50.8901 5.812 51.0301 5.136 51.0301 4.232C51.0301 3.328 50.8901 2.656 50.6101 2.216C50.3301 1.768 49.8541 1.544 49.1821 1.544C48.5101 1.544 48.0341 1.768 47.7541 2.216C47.4741 2.656 47.3341 3.328 47.3341 4.232C47.3341 5.136 47.4741 5.812 47.7541 6.26C48.0341 6.7 48.5101 6.92 49.1821 6.92ZM62.3731 0.0559993H64.0291L61.2211 8H59.5651L62.3731 0.0559993ZM70.9206 7.22C71.1126 6.804 71.3646 6.424 71.6766 6.08C71.9886 5.728 72.4046 5.32 72.9246 4.856L73.2366 4.58C73.6126 4.236 73.8766 3.984 74.0286 3.824C74.1886 3.656 74.3006 3.488 74.3646 3.32C74.4366 3.144 74.4726 2.924 74.4726 2.66C74.4726 2.292 74.3526 2.016 74.1126 1.832C73.8726 1.64 73.5206 1.544 73.0566 1.544C72.4406 1.544 71.8206 1.668 71.1966 1.916V0.487999C71.4926 0.383999 71.8406 0.303999 72.2406 0.248C72.6486 0.184 73.0406 0.151999 73.4166 0.151999C74.2966 0.151999 74.9646 0.372 75.4206 0.812C75.8846 1.244 76.1166 1.848 76.1166 2.624C76.1166 3.112 76.0006 3.54 75.7686 3.908C75.5366 4.276 75.1846 4.664 74.7126 5.072L74.5206 5.24C74.1606 5.552 73.8606 5.824 73.6206 6.056C73.3886 6.28 73.1926 6.512 73.0326 6.752H76.1886V8H70.9206V7.22ZM86.5649 8.312C85.3329 8.312 84.4409 7.968 83.8889 7.28C83.3449 6.592 83.0729 5.576 83.0729 4.232C83.0729 2.888 83.3449 1.872 83.8889 1.184C84.4409 0.496 85.3329 0.151999 86.5649 0.151999C87.7969 0.151999 88.6849 0.496 89.2289 1.184C89.7809 1.872 90.0569 2.888 90.0569 4.232C90.0569 5.576 89.7809 6.592 89.2289 7.28C88.6849 7.968 87.7969 8.312 86.5649 8.312ZM86.5649 6.92C87.2369 6.92 87.7129 6.7 87.9929 6.26C88.2729 5.812 88.4129 5.136 88.4129 4.232C88.4129 3.328 88.2729 2.656 87.9929 2.216C87.7129 1.768 87.2369 1.544 86.5649 1.544C85.8929 1.544 85.4169 1.768 85.1369 2.216C84.8569 2.656 84.7169 3.328 84.7169 4.232C84.7169 5.136 84.8569 5.812 85.1369 6.26C85.4169 6.7 85.8929 6.92 86.5649 6.92ZM96.9479 7.22C97.1399 6.804 97.3919 6.424 97.7039 6.08C98.0159 5.728 98.4319 5.32 98.9519 4.856L99.2639 4.58C99.6399 4.236 99.9039 3.984 100.056 3.824C100.216 3.656 100.328 3.488 100.392 3.32C100.464 3.144 100.5 2.924 100.5 2.66C100.5 2.292 100.38 2.016 100.14 1.832C99.8999 1.64 99.5479 1.544 99.0839 1.544C98.4679 1.544 97.8479 1.668 97.2239 1.916V0.487999C97.5199 0.383999 97.8679 0.303999 98.2679 0.248C98.6759 0.184 99.0679 0.151999 99.4439 0.151999C100.324 0.151999 100.992 0.372 101.448 0.812C101.912 1.244 102.144 1.848 102.144 2.624C102.144 3.112 102.028 3.54 101.796 3.908C101.564 4.276 101.212 4.664 100.74 5.072L100.548 5.24C100.188 5.552 99.8879 5.824 99.6479 6.056C99.4159 6.28 99.2199 6.512 99.0599 6.752H102.216V8H96.9479V7.22ZM112.592 8.312C111.36 8.312 110.468 7.968 109.916 7.28C109.372 6.592 109.1 5.576 109.1 4.232C109.1 2.888 109.372 1.872 109.916 1.184C110.468 0.496 111.36 0.151999 112.592 0.151999C113.824 0.151999 114.712 0.496 115.256 1.184C115.808 1.872 116.084 2.888 116.084 4.232C116.084 5.576 115.808 6.592 115.256 7.28C114.712 7.968 113.824 8.312 112.592 8.312ZM112.592 6.92C113.264 6.92 113.74 6.7 114.02 6.26C114.3 5.812 114.44 5.136 114.44 4.232C114.44 3.328 114.3 2.656 114.02 2.216C113.74 1.768 113.264 1.544 112.592 1.544C111.92 1.544 111.444 1.768 111.164 2.216C110.884 2.656 110.744 3.328 110.744 4.232C110.744 5.136 110.884 5.812 111.164 6.26C111.444 6.7 111.92 6.92 112.592 6.92Z" fill="black"/>
</svg>
